<svg width="30" height="27" viewBox="0 0 30 27" fill="none" xmlns="http://www.w3.org/2000/svg">
<path d="M24.7778 1H27C28.1046 1 29 1.89543 29 3V23.8889C29 24.9935 28.1046 25.8889 27 25.8889H24.7778C23.6732 25.8889 22.7778 24.9935 22.7778 23.8889V3C22.7778 1.89543 23.6732 1 24.7778 1Z" stroke="#8D8D8D" stroke-width="2" stroke-linecap="round" stroke-linejoin="round"/>
<path d="M13.8889 7.22222H16.1111C17.2157 7.22222 18.1111 8.11765 18.1111 9.22222V23.8889C18.1111 24.9935 17.2157 25.8889 16.1111 25.8889H13.8889C12.7843 25.8889 11.8889 24.9935 11.8889 23.8889V9.22222C11.8889 8.11765 12.7843 7.22222 13.8889 7.22222Z" stroke="#8D8D8D" stroke-width="2" stroke-linecap="round" stroke-linejoin="round"/>
<path d="M3 13.4444H5.22222C6.32679 13.4444 7.22222 14.3399 7.22222 15.4444V23.8889C7.22222 24.9935 6.32679 25.8889 5.22222 25.8889H3C1.89543 25.8889 1 24.9935 1 23.8889V15.4444C1 14.3399 1.89543 13.4444 3 13.4444Z" stroke="#8D8D8D" stroke-width="2" stroke-linecap="round" stroke-linejoin="round"/>
</svg>
