<svg width="30" height="23" viewBox="0 0 30 23" fill="none" xmlns="http://www.w3.org/2000/svg">
<path d="M21.2729 15.3674C22.0418 15.1342 22.9441 15 23.9091 15C26.7207 15 29 16.1396 29 17.5455C29 18.9513 26.7207 20.0909 23.9091 20.0909C22.9441 20.0909 22.0418 19.9567 21.2729 19.7235M21.2729 15.3674C19.8935 14.3761 17.5983 13.7273 15 13.7273C12.4017 13.7273 10.1065 14.3761 8.72712 15.3674M21.2729 15.3674C22.1324 15.9852 22.6364 16.7359 22.6364 17.5455C22.6364 18.355 22.1324 19.1058 21.2729 19.7235M21.2729 19.7235C19.8935 20.7148 17.5983 21.3636 15 21.3636C12.4017 21.3636 10.1065 20.7148 8.72712 19.7235M8.72712 15.3674C7.95817 15.1342 7.0559 15 6.09091 15C3.27928 15 1 16.1396 1 17.5455C1 18.9513 3.27928 20.0909 6.09091 20.0909C7.0559 20.0909 7.95817 19.9567 8.72712 19.7235M8.72712 15.3674C7.86756 15.9852 7.36364 16.7359 7.36364 17.5455C7.36364 18.355 7.86756 19.1058 8.72712 19.7235M18.8182 4.81818C18.8182 6.92691 17.1087 8.63636 15 8.63636C12.8913 8.63636 11.1818 6.92691 11.1818 4.81818C11.1818 2.70946 12.8913 1 15 1C17.1087 1 18.8182 2.70946 18.8182 4.81818ZM26.4545 8.63636C26.4545 10.0422 25.3149 11.1818 23.9091 11.1818C22.5033 11.1818 21.3636 10.0422 21.3636 8.63636C21.3636 7.23055 22.5033 6.09091 23.9091 6.09091C25.3149 6.09091 26.4545 7.23055 26.4545 8.63636ZM8.63636 8.63636C8.63636 10.0422 7.49672 11.1818 6.09091 11.1818C4.68509 11.1818 3.54545 10.0422 3.54545 8.63636C3.54545 7.23055 4.68509 6.09091 6.09091 6.09091C7.49672 6.09091 8.63636 7.23055 8.63636 8.63636Z" stroke="#8D8D8D" stroke-width="2"/>
</svg>
