<svg width="27" height="30" viewBox="0 0 27 30" fill="none" xmlns="http://www.w3.org/2000/svg">
<path d="M8.77778 15H11.8889M11.8889 15V4.11111H18.1111M11.8889 15H18.1111M11.8889 15V25.8889H18.1111M2.55556 13.4444H2.56953M24.3333 1H24.3473M24.3333 11.8889H24.3473M24.3333 24.3333H24.3473M1 18.1111C1 17.252 1.69645 16.5556 2.55556 16.5556C3.41467 16.5556 4.11111 17.252 4.11111 18.1111H1ZM22.7778 5.66667C22.7778 4.80756 23.4742 4.11111 24.3333 4.11111C25.1924 4.11111 25.8889 4.80756 25.8889 5.66667H22.7778ZM22.7778 16.5556C22.7778 15.6964 23.4742 15 24.3333 15C25.1924 15 25.8889 15.6964 25.8889 16.5556H22.7778ZM22.7778 29C22.7778 28.1409 23.4742 27.4444 24.3333 27.4444C25.1924 27.4444 25.8889 28.1409 25.8889 29H22.7778Z" stroke="#8D8D8D" stroke-width="2" stroke-linecap="round" stroke-linejoin="round"/>
</svg>
