<svg width="30" height="30" viewBox="0 0 30 30" fill="none" xmlns="http://www.w3.org/2000/svg">
<path d="M10.3333 13.4444L11.8891 1M19.6667 13.4444L18.1113 1M25.8891 13.4444H26.4385C27.7396 13.4444 28.6943 12.2217 28.3788 10.9594L26.2678 2.51495C26.0452 1.62461 25.2452 1 24.3275 1H18.1113M25.8891 13.4444V27C25.8891 28.1046 24.9936 29 23.8891 29H18.1113M25.8891 13.4444H4.11129M4.11129 13.4444H3.56159C2.26044 13.4444 1.30572 12.2216 1.62131 10.9593L3.73254 2.5149C3.95514 1.62458 4.7551 1 5.67282 1H11.8891M4.11129 13.4444V27C4.11129 28.1046 5.00672 29 6.11129 29H11.8891M18.1113 29V21.6667C18.1113 20.5621 17.2159 19.6667 16.1113 19.6667H13.8891C12.7845 19.6667 11.8891 20.5621 11.8891 21.6667V29M18.1113 29H11.8891M18.1113 1H11.8891" stroke="#353434" stroke-width="2" stroke-linejoin="round"/>
</svg>
