<svg width="30" height="30" viewBox="0 0 30 30" fill="none" xmlns="http://www.w3.org/2000/svg">
<path d="M22 29H5C2.79086 29 1 27.2091 1 25V1L6.25 4.5L11.5 1L16.75 4.5L22 1V15M22 29V15M22 29H25C27.2091 29 29 27.2091 29 25V15H22M11.5 16.75H8.875C7.42525 16.75 6.25 15.5747 6.25 14.125V14.125C6.25 12.6753 7.42525 11.5 8.875 11.5H11.5M11.5 16.75H14.125C15.5747 16.75 16.75 17.9253 16.75 19.375V19.375C16.75 20.8247 15.5747 22 14.125 22H11.5M11.5 16.75V11.5M11.5 16.75V22M16.75 11.5H11.5M11.5 11.5V9.75M11.5 22H6.25M11.5 22V23.75" stroke="#8D8D8D" stroke-width="2" stroke-linecap="round" stroke-linejoin="round"/>
</svg>
